<svg xmlns="http://www.w3.org/2000/svg" viewBox="268.2707 115.2696 95.3633 64.2004" width="95.3633px" height="64.2004px"><path class="cls-0" d="M 355.434 179.47 L 363.434 172.87 C 363.534 171.17 363.634 169.37 363.634 167.67 C 363.634 144.37 345.334 115.37 316.134 115.27 C 292.834 115.17 272.234 132.77 268.634 156.37 C 268.234 159.27 268.034 165.27 268.734 166.47 L 270.234 167.17 L 272.534 167.27 L 273.034 165.77 L 273.134 162.07 L 276.034 162.07 L 276.134 160.37 L 275.434 159.87 L 275.434 158.37 L 276.334 158.07 L 276.334 155.77 L 276.734 154.07 L 280.134 154.57 L 279.234 156.77 L 279.934 157.37 L 280.434 156.77 L 281.534 157.37 L 282.434 157.27 L 282.934 157.97 L 283.634 157.77 L 284.034 158.17 L 285.634 158.07 L 285.634 162.17 L 286.934 162.17 L 287.634 160.57 L 288.034 160.77 L 287.934 167.17 L 290.234 166.97 L 288.634 168.47 L 289.134 170.67 L 289.834 170.97 L 295.534 171.07 L 297.134 168.47 L 298.634 135.07 L 300.134 135.17 L 300.234 137.07 L 301.134 137.47 L 301.734 138.67 L 303.434 138.77 L 304.134 137.17 L 305.334 137.07 L 306.334 138.97 L 308.634 139.07 L 309.534 139.47 L 309.434 140.17 L 307.934 140.27 L 306.234 141.17 L 309.634 141.87 L 311.034 142.27 L 311.034 142.87 L 307.834 143.47 L 308.034 144.37 L 309.034 144.57 L 311.234 145.37 L 311.234 145.87 L 307.834 146.37 L 307.834 147.27 L 308.634 147.07 L 310.334 148.17 L 312.634 147.97 L 311.534 176.17 L 315.034 174.57 L 316.234 173.57 L 316.934 171.97 L 317.234 169.67 L 317.834 169.57 L 318.634 158.17 L 319.034 157.77 L 319.334 158.37 L 322.034 158.07 L 322.234 157.07 L 326.934 157.17 L 327.634 156.57 L 329.034 156.17 L 330.934 156.37 L 330.834 167.57 L 333.834 167.47 L 334.534 142.77 L 336.734 142.77 L 337.634 143.47 L 338.834 142.97 L 341.234 143.37 L 343.834 143.37 L 343.834 144.17 L 340.834 144.57 L 340.834 146.07 L 341.434 146.47 L 341.534 147.87 L 344.134 147.97 L 344.134 148.67 L 340.934 149.07 L 340.834 150.87 L 343.234 151.07 L 343.634 151.47 L 345.634 151.67 L 345.934 150.77 L 346.734 149.87 L 346.734 148.17 L 351.934 147.07 L 351.934 141.77 L 354.934 141.77 L 355.734 143.77 L 354.734 179.37 L 355.434 179.47 L 355.434 179.47 Z" style="fill: rgb(209, 100, 43); stroke-width: 1;" id="object-0" transform="matrix(1, 0, 0, 1, 0, 7.105427357601002e-15)"/></svg>